<?xml version="1.0" encoding="UTF-8" standalone="no"?>
<!-- Created with Inkscape (http://www.inkscape.org/) -->
<svg id="svg2" xmlns="http://www.w3.org/2000/svg" xml:space="preserve" height="302.07614934" viewBox="0 0 400.0 365.0" width="331.042355441" version="1.0"><path id="shield-white" d="m88.264 279.59c-23.902-31.51-43.136-66.95-58.23-107.18-17.985-48.04-26.982-101.17-29.534-157.37l36.117-13.791 362.88 0.1598-0.24 17.424c-2.31 56.44-12.79 110.33-31.3 158.04-14.87 38.37-33.87 73.11-58.12 104.37-41.23 53.16-84.37 78.45-86.02 79.36l-4.72 3.15-58.55-10.73c-7.34-4.74-29.72-17.4-72.286-73.43" fill="#fff"/><path id="shield-red" d="m356.5 162.14l-275.89 0.17c46.35 128.51 137.68 185.02 137.68 185.02s90.39-54.43 138.21-185.19zm-123.47 33.29c4.42 0.2 9.73 1.26 13.53 2.95 3.06 1.32 8 1.52 11.44 1.39-3.6 1.76-7.02 3.93-10.06 6.58-0.4 0.39-0.8 0.84-1.21 1.22-2.43 2.33-4.49 4.8-6.07 7.45-2.95 1.2-9.24 3.63-16.13 4.69-9.45 1.46-13.09-2.82-21.84-0.87-8.73 1.95-12.14 5.38-12.14 5.38s13.83-2.13 18.55 1.56c5.72 4.46 4.47 8.49 4.34 8.84 0.41-0.47 4.55-5.36 13.35-5.2 9.21 0.16 10.06 1.73 10.06 1.73 0.1 0.85 0.33 1.65 0.52 2.43 1.33 5.99 5.06 11.19 10.75 14.74-4.76-1.58-12.26-3.56-18.04-3.3-8.64 0.44-14.78 6.67-25.83 8.33-10.73 1.57-13.88-6.51-14.05-6.94 0.41 0.11 7.1 2.44 10.92-0.87 5.18-4.44 1.49-10.59-4.85-9.88-6.34 0.73-10.02 4.3-20.64 5.9-10.68 1.6-18.2-4.34-18.2-4.34s6.06 0.58 8.15-2.08c2.11-2.63 0.87-6.15-2.43-6.94-3.28-0.84-5.81 2.68-19.77 3.47-13.55 0.7-20.9-8.79-21.33-9.36 0.19 0.13 4.32 3.08 13.18 2.08 9.1-1.03 13.97-6.92 21.5-8.84 7.51-1.93 12.36-0.34 17.86 3.29 4.2 2.76 13.43 1.33 13.53-5.55 0.11-6.34-10.23-4.51-10.23-4.51s5.69-4.58 14.74-4.85c5.98-0.16 11.55 2.33 16.99 4.51 5.47 2.19 13.45 2.15 14.05-3.13 0.59-5.28-7.81-5.2-7.81-5.2s8.41-3.99 13.18-4.51c1.19-0.13 2.52-0.24 3.99-0.17zm46.47 3.99c5.43 0.2 10.61 1.48 14.92 4.16 5.14 3.2 8.29 7.91 9.01 13.35-6.74 2.63-12.93 6.68-17.86 11.45-6.09 5.88-9.95 12.69-11.44 19.77-8.54 1.65-17.29 0.47-23.93-3.65-4.63-2.9-7.76-7.02-8.85-11.79-0.15-0.68-0.26-1.37-0.34-2.08-0.08-0.62 0-1.11 0-1.73 8.56-2.58 16.21-7.1 22.37-13.01 4.42-4.25 7.68-9.17 9.71-14.22 0.3-0.73 0.62-1.32 0.87-2.08 1.84-0.19 3.73-0.24 5.54-0.17zm-10.23 0.87c-1.84 4.36-4.94 8.71-8.84 12.48-5.42 5.2-11.45 8.89-18.9 11.27 1.14-4.71 3.77-9.31 7.97-13.35 0.65-0.65 1.36-1.28 2.09-1.91 5.07-4.2 11.34-7.11 17.68-8.49zm34.16 21.32c-0.65 5.53-3.59 11.19-8.49 15.96-4.69 4.5-10.5 7.7-16.65 9.53 1.49-5.63 5.14-10.64 10.23-15.6 4.2-4.01 9.23-7.42 14.91-9.89z" fill="#ee202e"/><path id="shield-navy-blue" d="m51.649 16.128c2.226 51.377 12.138 96.812 25.144 135.43h283.87c12.82-38.89 22.08-83.889 24.27-135.26l-333.28-0.172zm-14.566 1.214l-25.664 9.364c3.301 51.266 12.471 98.264 29.999 145.48 14.906 40.11 35.402 75.82 60.002 106.82 34.25 43.13 54.18 57.42 64.33 64.68l28.79 4.68c-16.37-12.16-41.24-33.55-66.25-65.54-24.36-31.16-45.04-67.64-59.648-105.95-10.348-27.1-18.242-55.78-23.583-86.014-4.141-23.306-7.976-73.524-7.976-73.524z" fill="#141b36"/><path id="USTA" d="m284.19 44.567s-6.44 5.722-12.84 5.722h-78.2c-22.19 0-32.78 3.066-32.78 20.115 0 11.563 4.05 18.513 24.45 19.595l8.67 0.347c8.97 0.492 9.58 0.791 10.58 1.387 1.01 0.569 2.43 2.47 2.43 3.989 0 2.843-0.81 4.808-2.6 5.718h-0.17c-1.14 0.49-8.37 0.52-10.76 0.52h-20.28c-6.59 0-13.36-10.054-13.36-10.053v18.553c0 3.6 3.12 6.59 6.94 6.59h26.7c20.57 0 33.47-3.54 33.47-20.635 0-16.633-8.15-19.754-32.43-20.809h-0.52c-12.59-0.568-13.35-0.818-13.35-5.202 0-2.684 1.33-3.766 2.6-4.335 1.27-0.548 1.6-0.693 10.41-0.693h45.43v45.084c0 3.6 3.14 6.59 6.94 6.59h26.7s-11.44-6.19-11.44-12.31v-39.364h16.47c3.77 0 6.94-2.81 6.94-6.416v-14.393zm-211.04 5.722s10.404 6.215 10.404 12.312v35.028c0 17.641 16.775 19.941 34.855 19.941 21.02 0 35.03-3.31 35.03-19.941v-40.75c0-3.6-3.14-6.59-6.94-6.59h-25.66s10.4 6.215 10.4 12.312v36.589c0 2.12 0.09 3.12-12.83 3.12-12.66 0-12.66-1-12.66-3.12v-42.311c0-3.6-3.17-6.59-6.935-6.59h-25.664zm219.53 0s7.08 6.784 4.86 11.792l-22.89 48.379c-1.33 3.47 2.27 6.59 6.07 6.59h23.41s-8.17-3.1-6.24-7.98c1.26-2.46 2.37-4.71 2.6-5.2h27.05c0.35 0.76 2.95 6.25 4.85 9.89 0.9 1.86 3.31 3.29 5.2 3.29h25.67s-9.21-5.58-12.14-11.1l-24.1-50.632c-1.04-2.629-4.61-5.029-7.46-5.029h-26.88zm21.33 22.023c1.35 2.955 6.65 15.579 7.46 17.34h-15.09c0.84-1.817 6.31-14.413 7.63-17.34z" fill="#fff"/></svg>
